<?xml version="1.0" encoding="utf-8"?>
<svg version="1.1" xmlns:xlink="http://www.w3.org/1999/xlink" width="56px" height="45px" xmlns="http://www.w3.org/2000/svg">
  <g transform="matrix(1 0 0 1 -134 -785 )">
    <path d="M 42.4375 40.693359375  C 42.8637820512821 40.322265625  43.0769230769231 39.8828125  43.0769230769231 39.375  C 43.0769230769231 38.8671875  42.8637820512821 38.427734375  42.4375 38.056640625  C 42.011217948718 37.685546875  41.5064102564103 37.5  40.9230769230769 37.5  C 40.3397435897436 37.5  39.8349358974359 37.685546875  39.4086538461538 38.056640625  C 38.9823717948718 38.427734375  38.7692307692308 38.8671875  38.7692307692308 39.375  C 38.7692307692308 39.8828125  38.9823717948718 40.322265625  39.4086538461538 40.693359375  C 39.8349358974359 41.064453125  40.3397435897436 41.25  40.9230769230769 41.25  C 41.5064102564103 41.25  42.011217948718 41.064453125  42.4375 40.693359375  Z M 51.0528846153846 40.693359375  C 51.4791666666667 40.322265625  51.6923076923077 39.8828125  51.6923076923077 39.375  C 51.6923076923077 38.8671875  51.4791666666667 38.427734375  51.0528846153846 38.056640625  C 50.6266025641026 37.685546875  50.1217948717949 37.5  49.5384615384615 37.5  C 48.9551282051282 37.5  48.4503205128205 37.685546875  48.0240384615385 38.056640625  C 47.5977564102564 38.427734375  47.3846153846154 38.8671875  47.3846153846154 39.375  C 47.3846153846154 39.8828125  47.5977564102564 40.322265625  48.0240384615385 40.693359375  C 48.4503205128205 41.064453125  48.9551282051282 41.25  49.5384615384615 41.25  C 50.1217948717949 41.25  50.6266025641026 41.064453125  51.0528846153846 40.693359375  Z M 55.0576923076923 30.8203125  C 55.6858974358974 31.3671875  56 32.03125  56 32.8125  L 56 42.1875  C 56 42.96875  55.6858974358974 43.6328125  55.0576923076923 44.1796875  C 54.4294871794872 44.7265625  53.6666666666667 45  52.7692307692308 45  L 3.23076923076923 45  C 2.33333333333333 45  1.57051282051282 44.7265625  0.942307692307692 44.1796875  C 0.314102564102564 43.6328125  0 42.96875  0 42.1875  L 0 32.8125  C 0 32.03125  0.314102564102564 31.3671875  0.942307692307692 30.8203125  C 1.57051282051282 30.2734375  2.33333333333333 30  3.23076923076923 30  L 18.8798076923077 30  L 23.4230769230769 33.984375  C 24.724358974359 35.078125  26.25 35.625  28 35.625  C 29.75 35.625  31.275641025641 35.078125  32.5769230769231 33.984375  L 37.1538461538462 30  L 52.7692307692308 30  C 53.6666666666667 30  54.4294871794872 30.2734375  55.0576923076923 30.8203125  Z M 43.0769230769231 15  C 44.0192307692308 15  44.6810897435898 15.380859375  45.0625 16.142578125  C 45.4439102564103 16.943359375  45.286858974359 17.626953125  44.5913461538462 18.193359375  L 29.5144230769231 31.318359375  C 29.1105769230769 31.689453125  28.6057692307692 31.875  28 31.875  C 27.3942307692308 31.875  26.8894230769231 31.689453125  26.4855769230769 31.318359375  L 11.4086538461538 18.193359375  C 10.713141025641 17.626953125  10.5560897435897 16.943359375  10.9375 16.142578125  C 11.3189102564103 15.380859375  11.9807692307692 15  12.9230769230769 15  L 22 15  L 22 1.875  C 21.5384615384615 1.36718749999999  21.7516025641026 0.927734374999994  22.1778846153846 0.556640624999998  C 22.6041666666667 0.185546875000003  23.1089743589744 0  23.6923076923077 0  L 32.3076923076923 0  C 32.8910256410256 0  33.3958333333333 0.185546875000003  33.8221153846154 0.556640624999998  C 34.2483974358974 0.927734374999994  34.4615384615385 1.36718749999999  34 1.875  L 34 15  L 43.0769230769231 15  Z " fill-rule="nonzero" fill="#ffffff" stroke="none" transform="matrix(1 0 0 1 134 785 )" />
  </g>
</svg>