<?xml version="1.0" encoding="utf-8"?>
<svg version="1.1" xmlns:xlink="http://www.w3.org/1999/xlink" width="56px" height="45px" xmlns="http://www.w3.org/2000/svg">
  <g transform="matrix(1 0 0 1 -577 -786 )">
    <path d="M 51.703125 40.60546875  C 51.9010416666667 40.4030539772727  52 40.1633522727273  52 39.8863636363636  L 52 15.3409090909091  C 51.3333333333333 16.1079545454545  50.6145833333333 16.8110795454545  49.84375 17.4502840909091  C 44.2604166666667 21.8394886363636  39.8229166666667 25.4403409090909  36.53125 28.2528409090909  C 35.46875 29.1690340909091  34.6041666666667 29.8828125  33.9375 30.3941761363636  C 33.2708333333333 30.9055397727273  32.3697916666667 31.4222301136364  31.234375 31.9442471590909  C 30.0989583333333 32.4662642045455  29.03125 32.7272727272727  28.03125 32.7272727272727  L 28 32.7272727272727  L 27.96875 32.7272727272727  C 26.96875 32.7272727272727  25.9010416666667 32.4662642045455  24.765625 31.9442471590909  C 23.6302083333333 31.4222301136364  22.7291666666667 30.9055397727273  22.0625 30.3941761363636  C 21.3958333333333 29.8828125  20.53125 29.1690340909091  19.46875 28.2528409090909  C 16.1770833333333 25.4403409090909  11.7395833333333 21.8394886363636  6.15625 17.4502840909091  C 5.38541666666667 16.8110795454545  4.66666666666667 16.1079545454545  4 15.3409090909091  L 4 39.8863636363636  C 4 40.1633522727273  4.09895833333333 40.4030539772727  4.296875 40.60546875  C 4.49479166666667 40.8078835227273  4.72916666666667 40.9090909090909  5 41  L 51 41  C 51.2708333333333 40.9090909090909  51.5052083333333 40.8078835227273  51.703125 40.60546875  Z M 50.546875 10.4989346590909  C 51.515625 8.95419034090909  52 7.55326704545455  52 6.29616477272727  L 52 5.94460227272727  L 52 5.51313920454546  C 52 5.51313920454546  51.9947916666667 5.37464488636363  51.984375 5.09765625  C 51.9739583333333 4.82066761363636  51.9427083333333 4.68749999999999  51.890625 4.69815340909091  C 51.8385416666667 4.70880681818182  51.78125 4.61292613636363  51.71875 4.41051136363636  C 51.65625 4.20809659090909  51.5625 4.12819602272727  51.4375 4.17080965909091  C 51.3125 4.21342329545455  51.1666666666667 4.18678977272727  51 4  L 5 4  C 4.72916666666667 4.09090909090909  4.49479166666667 4.19211647727272  4.296875 4.39453125  C 4.09895833333333 4.59694602272727  4 4.83664772727272  4 5.11363636363636  C 4 8.69318181818182  5.53125 11.71875  8.59375 14.1903409090909  C 12.6145833333333 17.4289772727273  16.7916666666667 20.8061079545455  21.125 24.3217329545455  C 21.25 24.4282670454545  21.6145833333333 24.7425426136364  22.21875 25.2645596590909  C 22.8229166666667 25.7865767045455  23.3020833333333 26.1860795454545  23.65625 26.4630681818182  C 24.0104166666667 26.7400568181818  24.4739583333333 27.0756392045455  25.046875 27.4698153409091  C 25.6197916666667 27.8639914772727  26.1458333333333 28.1569602272727  26.625 28.3487215909091  C 27.1041666666667 28.5404829545455  27.5520833333333 28.6363636363636  27.96875 28.6363636363636  L 28 28.6363636363636  L 28.03125 28.6363636363636  C 28.4479166666667 28.6363636363636  28.8958333333333 28.5404829545455  29.375 28.3487215909091  C 29.8541666666667 28.1569602272727  30.3802083333333 27.8639914772727  30.953125 27.4698153409091  C 31.5260416666667 27.0756392045455  31.9895833333333 26.7400568181818  32.34375 26.4630681818182  C 32.6979166666667 26.1860795454545  33.1770833333333 25.7865767045455  33.78125 25.2645596590909  C 34.3854166666667 24.7425426136364  34.75 24.4282670454545  34.875 24.3217329545455  C 39.2083333333333 20.8061079545455  43.3854166666667 17.4289772727273  47.40625 14.1903409090909  C 48.53125 13.2741477272727  49.578125 12.0436789772727  50.546875 10.4989346590909  Z M 54.53125 1.50213068181818  C 55.5104166666667 2.50355113636363  56 3.70738636363636  56 5.11363636363636  L 56 39.8863636363636  C 56 41.2926136363636  55.5104166666667 42.4964488636364  54.53125 43.4978693181818  C 53.5520833333333 44.4992897727273  52.375 45  51 45  L 5 45  C 3.625 45  2.44791666666667 44.4992897727273  1.46875 43.4978693181818  C 0.489583333333333 42.4964488636364  0 41.2926136363636  0 39.8863636363636  L 0 5.11363636363636  C 0 3.70738636363636  0.489583333333333 2.50355113636363  1.46875 1.50213068181818  C 2.44791666666667 0.500710227272722  3.625 0  5 0  L 51 0  C 52.375 0  53.5520833333333 0.500710227272722  54.53125 1.50213068181818  Z " fill-rule="nonzero" fill="#ffffff" stroke="none" transform="matrix(1 0 0 1 577 786 )" />
  </g>
</svg>